<svg version="1.1" id="Layer_1" xmlns="http://www.w3.org/2000/svg" xmlns:xlink="http://www.w3.org/1999/xlink" x="0px" y="0px"
	 viewBox="0 0 198.9 198.9" style="enable-background:new 0 0 198.9 198.9;" xml:space="preserve">
<g fill="#FFFFFF">
	<path d="M99.9,83.1c-16,0-28.8,12.9-28.8,28.8s12.9,28.8,28.8,28.8s28.8-12.9,28.8-28.8S115.9,83.1,99.9,83.1z"/>
	<path d="M171.9,42.1h-24.3l-6.2-14.8c-2.9-6.9-9.8-11.4-17.2-11.4H75.8c-7.4,0-14.3,4.5-17.2,11.4l-6.2,14.8H27.9
		C15,42.1,4.8,52.4,4.8,65.2v93.7C4.8,171.8,15,182,27.9,182h144c12.9,0,23.1-10.2,23.1-23.1V65.2C195,52.6,184.5,42.1,171.9,42.1z
		 M99.9,157.7c-25.3,0-45.5-20.5-45.5-45.5c0-25.3,20.5-45.5,45.5-45.5s45.5,20.5,45.5,45.5S125.2,157.7,99.9,157.7z"/>
</g>
</svg>
